<svg width="52" height="51" viewBox="0 0 52 51" fill="none" xmlns="http://www.w3.org/2000/svg">
<path fill-rule="evenodd" clip-rule="evenodd" d="M26.0001 0C11.6705 0 0.064209 11.6063 0.064209 25.9359C0.064209 37.4125 7.48836 47.1061 17.7979 50.5426C19.0947 50.7695 19.581 49.9914 19.581 49.3106C19.581 48.6947 19.5486 46.6522 19.5486 44.4801C13.0322 45.6796 11.3463 42.8915 10.8276 41.4326C10.5358 40.6869 9.27145 38.3851 8.16918 37.7692C7.26142 37.2829 5.96463 36.0833 8.13676 36.0509C10.1792 36.0185 11.6381 37.9313 12.1244 38.7093C14.4586 42.6321 18.1869 41.5299 19.6782 40.849C19.9052 39.1632 20.586 38.0285 21.3316 37.3801C15.5609 36.7317 9.53081 34.4947 9.53081 24.5743C9.53081 21.7537 10.5358 19.4195 12.1892 17.604C11.9299 16.9556 11.0221 14.2972 12.4486 10.731C12.4486 10.731 14.6207 10.0502 19.581 13.3894C21.6558 12.8059 23.8604 12.5141 26.065 12.5141C28.2695 12.5141 30.4741 12.8059 32.5489 13.3894C37.5092 10.0177 39.6813 10.731 39.6813 10.731C41.1078 14.2972 40.2 16.9556 39.9407 17.604C41.5941 19.4195 42.5991 21.7213 42.5991 24.5743C42.5991 34.5272 36.5366 36.7317 30.7658 37.3801C31.706 38.1906 32.5165 39.7468 32.5165 42.1783C32.5165 45.6472 32.4841 48.4353 32.4841 49.3106C32.4841 49.9914 32.9704 50.8019 34.2672 50.5426C39.4158 48.8043 43.8898 45.4952 47.0593 41.0811C50.2289 36.667 51.9345 31.3701 51.936 25.9359C51.936 11.6063 40.3297 0 26.0001 0Z" fill="#3E60B8"/>
</svg>
